<svg width="113" height="113" viewBox="0 0 113 113" fill="none" xmlns="http://www.w3.org/2000/svg">
<path d="M75.2982 9.4165H37.7014C32.655 9.4165 27.9919 12.1087 25.4687 16.479L6.73909 48.9199C5.40851 51.2246 4.70801 53.8387 4.70801 56.4998H56.4997C56.4997 56.2013 56.5783 55.965 56.7276 55.7065L82.3607 11.3089C80.2485 10.0896 77.8214 9.4165 75.2982 9.4165Z" fill="url(#paint0_linear_413_1660)"/>
<path d="M75.2982 103.583H37.7014C32.655 103.583 27.9919 100.891 25.4688 96.5208L6.73909 64.0799C5.41802 61.7917 4.71794 59.1414 4.70801 56.5H56.4997C56.4997 56.7241 56.5585 57.001 56.6706 57.195L82.3602 101.691C80.2485 102.911 77.8214 103.583 75.2982 103.583Z" fill="url(#paint1_linear_413_1660)"/>
<path d="M106.26 64.0793L87.5307 96.5202C86.2694 98.7054 84.4727 100.471 82.3605 101.69L56.6709 57.1943C56.5589 57.0003 56.5 56.7805 56.5 56.5563C56.5 56.2578 56.5786 55.9645 56.7279 55.706L82.361 11.3086C84.4727 12.5279 86.2694 14.2935 87.5307 16.4787L106.26 48.9194C107.591 51.2242 108.292 53.8382 108.292 56.4994C108.292 59.1605 107.591 61.7751 106.26 64.0793Z" fill="url(#paint2_linear_413_1660)"/>
<path d="M106.26 64.0793L87.5307 96.5202C86.2694 98.7054 84.4727 100.471 82.3605 101.69L56.6709 57.1943C56.5589 57.0003 56.5 56.7805 56.5 56.5563C56.5 56.2578 56.5786 55.9645 56.7279 55.706L82.361 11.3086C84.4727 12.5279 86.2694 14.2935 87.5307 16.4787L106.26 48.9194C107.591 51.2242 108.292 53.8382 108.292 56.4994C108.292 59.1605 107.591 61.7751 106.26 64.0793Z" fill="url(#paint3_linear_413_1660)"/>
<path d="M106.26 64.0793L87.5307 96.5202C86.2694 98.7054 84.4727 100.471 82.3605 101.69L56.6709 57.1943C56.5589 57.0003 56.5 56.7805 56.5 56.5563C56.5 56.2578 56.5786 55.9645 56.7279 55.706L82.361 11.3086C84.4727 12.5279 86.2694 14.2935 87.5307 16.4787L106.26 48.9194C107.591 51.2242 108.292 53.8382 108.292 56.4994C108.292 59.1605 107.591 61.7751 106.26 64.0793Z" fill="url(#paint4_linear_413_1660)"/>
<path d="M106.26 64.0793L87.5307 96.5202C86.2694 98.7054 84.4727 100.471 82.3605 101.69L56.6709 57.1943C56.5589 57.0003 56.5 56.7805 56.5 56.5563C56.5 56.2578 56.5786 55.9645 56.7279 55.706L82.361 11.3086C84.4727 12.5279 86.2694 14.2935 87.5307 16.4787L106.26 48.9194C107.591 51.2242 108.292 53.8382 108.292 56.4994C108.292 59.1605 107.591 61.7751 106.26 64.0793Z" fill="url(#paint5_linear_413_1660)"/>
<path d="M56.5329 23.5415L47.0189 40.0206L37.8088 55.9824C37.718 56.1396 37.6702 56.3219 37.6702 56.5036L37.6718 56.5568H19.2475L19.2471 56.4998C19.2471 55.8972 19.4022 55.2945 19.7124 54.7516C21.3281 51.9252 24.7123 46.0561 28.1969 40.0207H28.1856L36.3406 25.8957C37.1817 24.4389 38.736 23.5415 40.4181 23.5415H56.5329Z" fill="#D9D9D9"/>
<path d="M56.5329 23.5415L47.0189 40.0206L37.8088 55.9824C37.718 56.1396 37.6702 56.3219 37.6702 56.5036L37.6718 56.5568H19.2475L19.2471 56.4998C19.2471 55.8972 19.4022 55.2945 19.7124 54.7516C21.3281 51.9252 24.7123 46.0561 28.1969 40.0207H28.1856L36.3406 25.8957C37.1817 24.4389 38.736 23.5415 40.4181 23.5415H56.5329Z" fill="url(#paint6_linear_413_1660)"/>
<path d="M56.5329 23.5415L47.0189 40.0206L37.8088 55.9824C37.718 56.1396 37.6702 56.3219 37.6702 56.5036L37.6718 56.5568H19.2475L19.2471 56.4998C19.2471 55.8972 19.4022 55.2945 19.7124 54.7516C21.3281 51.9252 24.7123 46.0561 28.1969 40.0207H28.1856L36.3406 25.8957C37.1817 24.4389 38.736 23.5415 40.4181 23.5415H56.5329Z" fill="url(#paint7_linear_413_1660)"/>
<path d="M47.0008 73.0118H47.0077L37.8088 57.0181C37.7275 56.8768 37.6807 56.7191 37.6718 56.5576L37.6702 56.5044H19.2471C19.2478 57.1056 19.4029 57.7069 19.7124 58.2484C21.3309 61.08 24.7242 66.9649 28.2151 73.0109H28.2039L36.3405 87.1038C37.1815 88.5606 38.7359 89.458 40.418 89.458H56.5371L47.0008 73.0118Z" fill="#D9D9D9"/>
<path d="M47.0008 73.0118H47.0077L37.8088 57.0181C37.7275 56.8768 37.6807 56.7191 37.6718 56.5576L37.6702 56.5044H19.2471C19.2478 57.1056 19.4029 57.7069 19.7124 58.2484C21.3309 61.08 24.7242 66.9649 28.2151 73.0109H28.2039L36.3405 87.1038C37.1815 88.5606 38.7359 89.458 40.418 89.458H56.5371L47.0008 73.0118Z" fill="url(#paint8_linear_413_1660)"/>
<path d="M65.7881 40.0207L75.3201 56.5333L65.8064 73.011L66.3159 73.8971L75.2966 89.4582L92.5724 59.5485L93.3172 58.2443C93.6261 57.7028 93.7805 57.1016 93.7805 56.5003C93.7805 55.899 93.6261 55.2983 93.3172 54.7563L92.5653 53.4399L84.8347 40.0543H84.8291L75.2966 23.5415L65.7881 40.0207Z" fill="#D9D9D9"/>
<path d="M65.7881 40.0207L75.3201 56.5333L65.8064 73.011L66.3159 73.8971L75.2966 89.4582L92.5724 59.5485L93.3172 58.2443C93.6261 57.7028 93.7805 57.1016 93.7805 56.5003C93.7805 55.899 93.6261 55.2983 93.3172 54.7563L92.5653 53.4399L84.8347 40.0543H84.8291L75.2966 23.5415L65.7881 40.0207Z" fill="url(#paint9_linear_413_1660)"/>
<defs>
<linearGradient id="paint0_linear_413_1660" x1="32.958" y1="11.7707" x2="12.7748" y2="43.7692" gradientUnits="userSpaceOnUse">
<stop stop-color="#3BD5FF"/>
<stop offset="1" stop-color="#0FAFFF"/>
</linearGradient>
<linearGradient id="paint1_linear_413_1660" x1="32.958" y1="56.5" x2="29.3476" y2="104.055" gradientUnits="userSpaceOnUse">
<stop stop-color="#0FAFFF"/>
<stop offset="1" stop-color="#0078D4"/>
</linearGradient>
<linearGradient id="paint2_linear_413_1660" x1="56.5" y1="11.3086" x2="134.478" y2="55.9923" gradientUnits="userSpaceOnUse">
<stop stop-color="#0FAFFF"/>
<stop offset="1" stop-color="#0078D4"/>
</linearGradient>
<linearGradient id="paint3_linear_413_1660" x1="56.5" y1="11.3086" x2="134.478" y2="55.9923" gradientUnits="userSpaceOnUse">
<stop stop-color="#3BD5FF"/>
<stop offset="1" stop-color="#0FAFFF"/>
</linearGradient>
<linearGradient id="paint4_linear_413_1660" x1="56.5" y1="11.3086" x2="134.478" y2="55.9923" gradientUnits="userSpaceOnUse">
<stop stop-color="#0FAFFF"/>
<stop offset="1" stop-color="#0078D4"/>
</linearGradient>
<linearGradient id="paint5_linear_413_1660" x1="60.8161" y1="11.3086" x2="135.234" y2="50.3988" gradientUnits="userSpaceOnUse">
<stop stop-color="#0078D4"/>
<stop offset="1" stop-color="#004695"/>
</linearGradient>
<linearGradient id="paint6_linear_413_1660" x1="37.8901" y1="23.5415" x2="44.9841" y2="54.955" gradientUnits="userSpaceOnUse">
<stop offset="0.173594" stop-color="#E6F9FE"/>
<stop offset="1" stop-color="#9DEAFF"/>
</linearGradient>
<linearGradient id="paint7_linear_413_1660" x1="19.2471" y1="23.5415" x2="52.0195" y2="60.5532" gradientUnits="userSpaceOnUse">
<stop stop-color="#FEFEFE"/>
<stop offset="1" stop-color="#E6F9FE"/>
</linearGradient>
<linearGradient id="paint8_linear_413_1660" x1="19.2471" y1="60.6039" x2="47.1774" y2="96.7004" gradientUnits="userSpaceOnUse">
<stop stop-color="#E6F9FE"/>
<stop offset="1" stop-color="#9DEAFF"/>
</linearGradient>
<linearGradient id="paint9_linear_413_1660" x1="65.7881" y1="23.5415" x2="113.219" y2="43.6839" gradientUnits="userSpaceOnUse">
<stop stop-color="#9DEAFF"/>
<stop offset="1" stop-color="#3BD5FF"/>
</linearGradient>
</defs>
</svg>
