<svg width="365" height="332" viewBox="0 0 365 332" fill="none" xmlns="http://www.w3.org/2000/svg">
<path d="M248.741 0.102966H116.26C98.4776 0.102966 82.0463 9.58965 73.1553 24.9893L7.15699 139.302C2.4684 147.424 0 156.635 0 166.012H182.5C182.5 164.96 182.777 164.127 183.303 163.216L273.627 6.77118C266.184 2.47464 257.632 0.102966 248.741 0.102966Z" fill="url(#paint0_linear_849_6218)"/>
<path d="M248.741 331.921H116.26C98.4777 331.921 82.0464 322.434 73.1555 307.034L7.15699 192.721C2.50191 184.658 0.0350068 175.319 0 166.012H182.5C182.5 166.802 182.707 167.777 183.102 168.461L273.626 325.253C266.185 329.55 257.632 331.921 248.741 331.921Z" fill="url(#paint1_linear_849_6218)"/>
<path d="M357.843 192.719L291.844 307.033C287.399 314.732 281.068 320.954 273.626 325.251L183.102 168.459C182.707 167.775 182.5 167 182.5 166.211C182.5 165.159 182.777 164.125 183.303 163.214L273.627 6.76959C281.068 11.0661 287.399 17.2877 291.844 24.9876L357.843 139.3C362.531 147.421 365 156.633 365 166.01C365 175.387 362.531 184.6 357.843 192.719Z" fill="url(#paint2_linear_849_6218)"/>
<path d="M357.843 192.719L291.844 307.033C287.399 314.732 281.068 320.954 273.626 325.251L183.102 168.459C182.707 167.775 182.5 167 182.5 166.211C182.5 165.159 182.777 164.125 183.303 163.214L273.627 6.76959C281.068 11.0661 287.399 17.2877 291.844 24.9876L357.843 139.3C362.531 147.421 365 156.633 365 166.01C365 175.387 362.531 184.6 357.843 192.719Z" fill="url(#paint3_linear_849_6218)"/>
<path d="M357.843 192.719L291.844 307.033C287.399 314.732 281.068 320.954 273.626 325.251L183.102 168.459C182.707 167.775 182.5 167 182.5 166.211C182.5 165.159 182.777 164.125 183.303 163.214L273.627 6.76959C281.068 11.0661 287.399 17.2877 291.844 24.9876L357.843 139.3C362.531 147.421 365 156.633 365 166.01C365 175.387 362.531 184.6 357.843 192.719Z" fill="url(#paint4_linear_849_6218)"/>
<path d="M357.843 192.719L291.844 307.033C287.399 314.732 281.068 320.954 273.626 325.251L183.102 168.459C182.707 167.775 182.5 167 182.5 166.211C182.5 165.159 182.777 164.125 183.303 163.214L273.627 6.76959C281.068 11.0661 287.399 17.2877 291.844 24.9876L357.843 139.3C362.531 147.421 365 156.633 365 166.01C365 175.387 362.531 184.6 357.843 192.719Z" fill="url(#paint5_linear_849_6218)"/>
<path d="M182.618 49.8757L149.093 107.944L116.64 164.189C116.319 164.743 116.151 165.385 116.151 166.025L116.157 166.213H51.2345L51.2329 166.012C51.2329 163.888 51.7795 161.765 52.8727 159.852C58.5657 149.892 70.4909 129.211 82.7695 107.944H82.7297L111.466 58.1711C114.43 53.0379 119.907 49.8757 125.834 49.8757H182.618Z" fill="#D9D9D9"/>
<path d="M182.618 49.8757L149.093 107.944L116.64 164.189C116.319 164.743 116.151 165.385 116.151 166.025L116.157 166.213H51.2345L51.2329 166.012C51.2329 163.888 51.7795 161.765 52.8727 159.852C58.5657 149.892 70.4909 129.211 82.7695 107.944H82.7297L111.466 58.1711C114.43 53.0379 119.907 49.8757 125.834 49.8757H182.618Z" fill="url(#paint6_linear_849_6218)"/>
<path d="M182.618 49.8757L149.093 107.944L116.64 164.189C116.319 164.743 116.151 165.385 116.151 166.025L116.157 166.213H51.2345L51.2329 166.012C51.2329 163.888 51.7795 161.765 52.8727 159.852C58.5657 149.892 70.4909 129.211 82.7695 107.944H82.7297L111.466 58.1711C114.43 53.0379 119.907 49.8757 125.834 49.8757H182.618Z" fill="url(#paint7_linear_849_6218)"/>
<path d="M149.03 224.196H149.054L116.64 167.838C116.353 167.34 116.188 166.784 116.157 166.215L116.151 166.028H51.2329C51.2354 168.147 51.7819 170.265 52.8727 172.173C58.5758 182.151 70.5329 202.888 82.8339 224.192H82.7944L111.466 273.852C114.429 278.985 119.906 282.148 125.834 282.148H182.633L149.03 224.196Z" fill="#D9D9D9"/>
<path d="M149.03 224.196H149.054L116.64 167.838C116.353 167.34 116.188 166.784 116.157 166.215L116.151 166.028H51.2329C51.2354 168.147 51.7819 170.265 52.8727 172.173C58.5758 182.151 70.5329 202.888 82.8339 224.192H82.7944L111.466 273.852C114.429 278.985 119.906 282.148 125.834 282.148H182.633L149.03 224.196Z" fill="url(#paint8_linear_849_6218)"/>
<path d="M215.227 107.944L248.815 166.13L215.292 224.193L217.087 227.315L248.732 282.148L309.608 176.755L312.232 172.159C313.321 170.251 313.865 168.132 313.865 166.014C313.865 163.895 313.321 161.778 312.232 159.868L309.583 155.23L282.342 108.062H282.322L248.732 49.8757L215.227 107.944Z" fill="#D9D9D9"/>
<path d="M215.227 107.944L248.815 166.13L215.292 224.193L217.087 227.315L248.732 282.148L309.608 176.755L312.232 172.159C313.321 170.251 313.865 168.132 313.865 166.014C313.865 163.895 313.321 161.778 312.232 159.868L309.583 155.23L282.342 108.062H282.322L248.732 49.8757L215.227 107.944Z" fill="url(#paint9_linear_849_6218)"/>
<defs>
<linearGradient id="paint0_linear_849_6218" x1="99.5454" y1="8.39842" x2="28.4252" y2="121.153" gradientUnits="userSpaceOnUse">
<stop stop-color="#3BD5FF"/>
<stop offset="1" stop-color="#0FAFFF"/>
</linearGradient>
<linearGradient id="paint1_linear_849_6218" x1="99.5455" y1="166.012" x2="86.8234" y2="333.582" gradientUnits="userSpaceOnUse">
<stop stop-color="#0FAFFF"/>
<stop offset="1" stop-color="#0078D4"/>
</linearGradient>
<linearGradient id="paint2_linear_849_6218" x1="182.5" y1="6.76959" x2="457.274" y2="164.223" gradientUnits="userSpaceOnUse">
<stop stop-color="#0FAFFF"/>
<stop offset="1" stop-color="#0078D4"/>
</linearGradient>
<linearGradient id="paint3_linear_849_6218" x1="182.5" y1="6.76959" x2="457.274" y2="164.223" gradientUnits="userSpaceOnUse">
<stop stop-color="#3BD5FF"/>
<stop offset="1" stop-color="#0FAFFF"/>
</linearGradient>
<linearGradient id="paint4_linear_849_6218" x1="182.5" y1="6.76959" x2="457.274" y2="164.223" gradientUnits="userSpaceOnUse">
<stop stop-color="#0FAFFF"/>
<stop offset="1" stop-color="#0078D4"/>
</linearGradient>
<linearGradient id="paint5_linear_849_6218" x1="197.709" y1="6.76959" x2="459.938" y2="144.513" gradientUnits="userSpaceOnUse">
<stop stop-color="#0078D4"/>
<stop offset="1" stop-color="#004695"/>
</linearGradient>
<linearGradient id="paint6_linear_849_6218" x1="116.926" y1="49.8757" x2="141.923" y2="160.569" gradientUnits="userSpaceOnUse">
<stop offset="0.173594" stop-color="#E6F9FE"/>
<stop offset="1" stop-color="#9DEAFF"/>
</linearGradient>
<linearGradient id="paint7_linear_849_6218" x1="51.2329" y1="49.8757" x2="166.714" y2="180.295" gradientUnits="userSpaceOnUse">
<stop stop-color="#FEFEFE"/>
<stop offset="1" stop-color="#E6F9FE"/>
</linearGradient>
<linearGradient id="paint8_linear_849_6218" x1="51.2329" y1="180.474" x2="149.652" y2="307.668" gradientUnits="userSpaceOnUse">
<stop stop-color="#E6F9FE"/>
<stop offset="1" stop-color="#9DEAFF"/>
</linearGradient>
<linearGradient id="paint9_linear_849_6218" x1="215.227" y1="49.8757" x2="382.362" y2="120.852" gradientUnits="userSpaceOnUse">
<stop stop-color="#9DEAFF"/>
<stop offset="1" stop-color="#3BD5FF"/>
</linearGradient>
</defs>
</svg>
